# xmcd CD database file
#
# Track frame offsets:
#	150
#	12849
#	24421
#	35604
#	45027
#	61564
#	74272
#	86280
#	98577
#	108965
#	121124
#	133364
#	145254
#	159159
#
# Disc length: 2259 seconds
#
# Revision: 0
# Processed by: cddbd v1.5.2PL0 Copyright (c) Steve Scherf et al.
# Submitted via: CDex 1.51
#
DISCID=9f08d10e
DTITLE=The Beau Hunks Sextette - Manhattan Minuet
DYEAR=1996
DGENRE=Jazz
TTITLE0=Manhattan Minuet
TTITLE1=Oil Gusher
TTITLE2=Christmas Night in Harlem
TTITLE3=Curley Cue
TTITLE4=Devil Drums
TTITLE5=A Little Bit of Rigoletto
TTITLE6=Tobacco Auctioneer
TTITLE7=The Sleepwalker
TTITLE8=Moment Musical
TTITLE9=The Happy Farmer
TTITLE10=The Quintette Plays Carmen
TTITLE11=Steeplechase
TTITLE12=Siberian Sleighride
TTITLE13=New Year's Eve in a Haunted House
EXTD=YEAR: 1996
EXTT0=
EXTT1=
EXTT2=
EXTT3=
EXTT4=
EXTT5=
EXTT6=
EXTT7=
EXTT8=
EXTT9=
EXTT10=
EXTT11=
EXTT12=
EXTT13=
PLAYORDER=
